<svg id="Layer_1" data-name="Layer 1" xmlns="http://www.w3.org/2000/svg" viewBox="0 0 48 48"><defs><style>.cls-1{fill:#fff}.cls-2{mask:url(#mask)}.cls-3{fill:#ffdb0a}.cls-4{mask:url(#mask-2)}.cls-5{fill:#fdca12}.cls-6{mask:url(#mask-3)}.cls-7{fill:#fab818}.cls-8{fill:#f1911f}.cls-9{fill:#ed7c20}.cls-10{fill:#ea6721}.cls-11{fill:#e64e21}.cls-12{fill:#d43622}.cls-13{mask:url(#mask-9)}.cls-15{mask:url(#mask-13)}</style><mask id="mask" x="2.85" y="0" width="42.18" height="47.12" maskUnits="userSpaceOnUse"><g id="b"><path id="a" class="cls-1" d="M26.82 1.64l15.27 8.69A5.8 5.8 0 0 1 45 15.38v17.24a5.8 5.8 0 0 1-2.94 5.05l-15.24 8.69a5.78 5.78 0 0 1-5.75 0L5.79 37.67a5.8 5.8 0 0 1-2.94-5.05V15.38a5.8 5.8 0 0 1 2.94-5.05l15.28-8.69a5.78 5.78 0 0 1 5.75 0zm-1.71 9.41a2.89 2.89 0 0 0-2.95 0l-9.45 5.56a2.91 2.91 0 0 0-1.44 2.51v9.76a2.91 2.91 0 0 0 1.44 2.51L22.16 37a2.89 2.89 0 0 0 2.95 0l9.46-5.56A2.93 2.93 0 0 0 36 28.88v-9.76a2.93 2.93 0 0 0-1.43-2.51z"/></g></mask><mask id="mask-2" x="2.85" y=".88" width="42.18" height="46.25" maskUnits="userSpaceOnUse"><g id="b-2" data-name="b"><path id="a-2" data-name="a" class="cls-1" d="M26.82 1.64l15.27 8.69A5.8 5.8 0 0 1 45 15.38v17.24a5.8 5.8 0 0 1-2.94 5.05l-15.24 8.69a5.78 5.78 0 0 1-5.75 0L5.79 37.67a5.8 5.8 0 0 1-2.94-5.05V15.38a5.8 5.8 0 0 1 2.94-5.05l15.28-8.69a5.78 5.78 0 0 1 5.75 0zm-1.71 9.41a2.89 2.89 0 0 0-2.95 0l-9.45 5.56a2.91 2.91 0 0 0-1.44 2.51v9.76a2.91 2.91 0 0 0 1.44 2.51L22.16 37a2.89 2.89 0 0 0 2.95 0l9.46-5.56A2.93 2.93 0 0 0 36 28.88v-9.76a2.93 2.93 0 0 0-1.43-2.51z"/></g></mask><mask id="mask-3" x="2.55" y=".88" width="42.49" height="46.25" maskUnits="userSpaceOnUse"><g id="b-3" data-name="b"><path id="a-3" data-name="a" class="cls-1" d="M26.82 1.64l15.27 8.69A5.8 5.8 0 0 1 45 15.38v17.24a5.8 5.8 0 0 1-2.94 5.05l-15.24 8.69a5.78 5.78 0 0 1-5.75 0L5.79 37.67a5.8 5.8 0 0 1-2.94-5.05V15.38a5.8 5.8 0 0 1 2.94-5.05l15.28-8.69a5.78 5.78 0 0 1 5.75 0zm-1.71 9.41a2.89 2.89 0 0 0-2.95 0l-9.45 5.56a2.91 2.91 0 0 0-1.44 2.51v9.76a2.91 2.91 0 0 0 1.44 2.51L22.16 37a2.89 2.89 0 0 0 2.95 0l9.46-5.56A2.93 2.93 0 0 0 36 28.88v-9.76a2.93 2.93 0 0 0-1.43-2.51z"/></g></mask><mask id="mask-9" x="2.85" y=".88" width="42.18" height="47.12" maskUnits="userSpaceOnUse"><g id="b-9" data-name="b"><path id="a-9" data-name="a" class="cls-1" d="M26.82 1.64l15.27 8.69A5.8 5.8 0 0 1 45 15.38v17.24a5.8 5.8 0 0 1-2.94 5.05l-15.24 8.69a5.78 5.78 0 0 1-5.75 0L5.79 37.67a5.8 5.8 0 0 1-2.94-5.05V15.38a5.8 5.8 0 0 1 2.94-5.05l15.28-8.69a5.78 5.78 0 0 1 5.75 0zm-1.71 9.41a2.89 2.89 0 0 0-2.95 0l-9.45 5.56a2.91 2.91 0 0 0-1.44 2.51v9.76a2.91 2.91 0 0 0 1.44 2.51L22.16 37a2.89 2.89 0 0 0 2.95 0l9.46-5.56A2.93 2.93 0 0 0 36 28.88v-9.76a2.93 2.93 0 0 0-1.43-2.51z"/></g></mask><mask id="mask-13" x="2.85" y=".88" width="42.6" height="46.25" maskUnits="userSpaceOnUse"><g id="b-13" data-name="b"><path id="a-13" data-name="a" class="cls-1" d="M26.82 1.64l15.27 8.69A5.8 5.8 0 0 1 45 15.38v17.24a5.8 5.8 0 0 1-2.94 5.05l-15.24 8.69a5.78 5.78 0 0 1-5.75 0L5.79 37.67a5.8 5.8 0 0 1-2.94-5.05V15.38a5.8 5.8 0 0 1 2.94-5.05l15.28-8.69a5.78 5.78 0 0 1 5.75 0zm-1.71 9.41a2.89 2.89 0 0 0-2.95 0l-9.45 5.56a2.91 2.91 0 0 0-1.44 2.51v9.76a2.91 2.91 0 0 0 1.44 2.51L22.16 37a2.89 2.89 0 0 0 2.95 0l9.46-5.56A2.93 2.93 0 0 0 36 28.88v-9.76a2.93 2.93 0 0 0-1.43-2.51z"/></g></mask></defs><g class="cls-2"><path class="cls-3" d="M23.64 0v10.91L12.73 5.82 23.64 0z"/></g><g class="cls-4"><path class="cls-5" d="M23.64 10.91L12.73 5.82 12 17.45l11.64-6.54z"/></g><g class="cls-6"><path class="cls-7" d="M12 17.45l.73-11.63-10.19 5.82L12 17.45z"/></g><g class="cls-6"><path class="cls-8" d="M12 17.45l-9.46-5.81V24L12 17.45z"/></g><g class="cls-6"><path class="cls-9" d="M12 17.45L2.54 24 12 30.55v-13.1z"/></g><g class="cls-6"><path class="cls-10" d="M12 30.55L2.54 24v13.09L12 30.55z"/></g><g class="cls-6"><path class="cls-11" d="M12 30.55l-9.46 6.54 10.19 5.82L12 30.55z"/></g><g class="cls-4"><path class="cls-12" d="M12 30.55l.73 12.36 10.91-5.82L12 30.55z"/></g><path fill="#bb2024" d="M23.64 37.09l-10.91 5.82L23.64 48V37.09z"/><g class="cls-13"><path class="cls-12" d="M23.64 37.09V48l10.18-5.09-10.18-5.82z"/></g><g class="cls-4"><path class="cls-11" d="M23.64 37.09l10.91-6.54-.73 12.36-10.18-5.82z"/></g><g class="cls-4"><path class="cls-10" d="M34.55 29.82l10.18 6.54-10.91 6.55.73-13.09z"/></g><g class="cls-15"><path class="cls-9" d="M35.27 30.55l10.18-7.28v13.82l-10.18-6.54z"/></g><g class="cls-15"><path class="cls-8" d="M35.27 30.55l-.72-13.1 10.9 5.82-10.18 7.28z"/></g><g class="cls-15"><path class="cls-7" d="M34.55 17.45l10.9-6.54v12.36l-10.9-5.82z"/></g><g class="cls-15"><path class="cls-5" d="M34.55 17.45l10.9-6.54-11.63-5.82.73 12.36z"/></g><g class="cls-4"><path class="cls-3" d="M35.27 17.45l-11.63-6.54 10.18-5.82 1.45 12.36z"/></g><path fill="#ffec00" d="M23.64 10.91l10.18-5.82L23.64 0v10.91z"/></svg>