<svg xmlns="http://www.w3.org/2000/svg" xmlns:xlink="http://www.w3.org/1999/xlink" viewBox="0 0 32 32"><defs><path id="a" d="M.104.338h7.054V6.5H.104z"/><path id="c" d="M.104.353h7.051v6.159H.104z"/><path id="e" d="M0 .139h5.953v7.789H0z"/><path id="g" d="M0 .428h5.953v7.786H0z"/></defs><g fill="none" fill-rule="evenodd"><path fill="#EE7D00" d="M29.35 23.86c.37-.66.6-1.4.61-2.07v-5.72l-5.95 4.7 5.33 3.09z"/><path fill="#FAB900" d="M29.96 16.07v-5.72c0-.66-.24-1.4-.62-2.06l-5.33 3.08 5.95 4.7z"/><path fill="#F29100" d="M24.01 20.78l5.95-4.7-5.95-4.71c.23.4.37.84.37 1.25v6.9c0 .41-.14.86-.37 1.26"/><g transform="translate(15.75 25.147)"><mask id="b" fill="#fff"><use xlink:href="#a"/></mask><path fill="#D63517" d="M7.16 3.14L.1.34V6.5A4.3 4.3 0 002.2 6l3.71-2.14 1.25-.72z" mask="url(#b)"/></g><path fill="#EB6608" d="M24.01 20.78l-1.1 7.5 4.95-2.85c.57-.33 1.1-.91 1.48-1.57l-5.33-3.08z"/><path fill="#E74E0F" d="M23.11 21.73l-5.98 3.45c-.35.2-.81.3-1.27.3l7.05 2.8 1.1-7.5c-.23.4-.55.75-.9.95"/><path fill="#FFDC00" d="M15.85 6.66V.5a4.3 4.3 0 00-2.1.5L8.8 3.86l7.05 2.8z"/><path fill="#FAB900" d="M7.7 11.37l1.1-7.51-4.95 2.86c-.58.33-1.1.9-1.48 1.57l5.33 3.08z"/><path fill="#FECB00" d="M8.6 10.42l5.98-3.46c.35-.2.81-.3 1.27-.3L8.8 3.86l-1.1 7.5c.23-.4.55-.74.9-.94m15.4.95l5.34-3.08a4.31 4.31 0 00-1.48-1.57l-4.95-2.86 1.1 7.5z"/><g transform="translate(15.75 .147)"><mask id="d" fill="#fff"><use xlink:href="#c"/></mask><path fill="#FFEC00" d="M2.2.85A4.3 4.3 0 00.1.35v6.16l7.06-2.8L2.2.85z" mask="url(#d)"/></g><path fill="#FFDC00" d="M17.13 6.96l5.98 3.46c.35.2.67.55.9.95l-1.1-7.51-7.06 2.8c.47 0 .93.1 1.28.3"/><g transform="translate(1.75 8.147)"><mask id="f" fill="#fff"><use xlink:href="#e"/></mask><path fill="#F29100" d="M5.95 3.22L.62.14A4.3 4.3 0 000 2.2v5.72l5.95-4.71z" mask="url(#f)"/></g><g transform="translate(1.75 15.647)"><mask id="h" fill="#fff"><use xlink:href="#g"/></mask><path fill="#EB6608" d="M0 .43v5.71c0 .67.24 1.41.62 2.07l5.33-3.08L0 .43z" mask="url(#h)"/></g><path fill="#EE7D00" d="M7.33 19.53v-6.91c0-.4.14-.85.37-1.25l-5.95 4.7 5.95 4.7a2.6 2.6 0 01-.37-1.24"/><path fill="#E74E0F" d="M7.7 20.78l-5.33 3.08c.38.66.9 1.24 1.48 1.57l4.95 2.86-1.1-7.51z"/><path fill="#BD1D1D" d="M13.75 31.15c.58.33 1.34.5 2.1.5v-6.17l-7.05 2.8 4.95 2.88z"/><path fill="#D63517" d="M14.58 25.18L8.6 21.73a2.6 2.6 0 01-.9-.95l1.1 7.5 7.05-2.8c-.46 0-.92-.1-1.27-.3"/></g></svg>