<svg data-name="Layer 1" xmlns="http://www.w3.org/2000/svg" viewBox="0 0 48 48"><defs><mask id="a" x="2.85" y="0" width="42.18" height="47.12" maskUnits="userSpaceOnUse"><path d="M26.82 1.64l15.27 8.69A5.8 5.8 0 0145 15.38v17.24a5.8 5.8 0 01-2.94 5.05l-15.24 8.69a5.78 5.78 0 01-5.75 0L5.79 37.67a5.8 5.8 0 01-2.94-5.05V15.38a5.8 5.8 0 012.94-5.05l15.28-8.69a5.78 5.78 0 015.75 0zm-1.71 9.41a2.89 2.89 0 00-2.95 0l-9.45 5.56a2.91 2.91 0 00-1.44 2.51v9.76a2.91 2.91 0 001.44 2.51L22.16 37a2.89 2.89 0 002.95 0l9.46-5.56A2.93 2.93 0 0036 28.88v-9.76a2.93 2.93 0 00-1.43-2.51z" fill="#fff"/></mask><mask id="b" x="2.85" y=".88" width="42.18" height="46.25" maskUnits="userSpaceOnUse"><g data-name="b"><path data-name="a" d="M26.82 1.64l15.27 8.69A5.8 5.8 0 0145 15.38v17.24a5.8 5.8 0 01-2.94 5.05l-15.24 8.69a5.78 5.78 0 01-5.75 0L5.79 37.67a5.8 5.8 0 01-2.94-5.05V15.38a5.8 5.8 0 012.94-5.05l15.28-8.69a5.78 5.78 0 015.75 0zm-1.71 9.41a2.89 2.89 0 00-2.95 0l-9.45 5.56a2.91 2.91 0 00-1.44 2.51v9.76a2.91 2.91 0 001.44 2.51L22.16 37a2.89 2.89 0 002.95 0l9.46-5.56A2.93 2.93 0 0036 28.88v-9.76a2.93 2.93 0 00-1.43-2.51z" fill="#fff"/></g></mask><mask id="c" x="2.55" y=".88" width="42.49" height="46.25" maskUnits="userSpaceOnUse"><g data-name="b"><path data-name="a" d="M26.82 1.64l15.27 8.69A5.8 5.8 0 0145 15.38v17.24a5.8 5.8 0 01-2.94 5.05l-15.24 8.69a5.78 5.78 0 01-5.75 0L5.79 37.67a5.8 5.8 0 01-2.94-5.05V15.38a5.8 5.8 0 012.94-5.05l15.28-8.69a5.78 5.78 0 015.75 0zm-1.71 9.41a2.89 2.89 0 00-2.95 0l-9.45 5.56a2.91 2.91 0 00-1.44 2.51v9.76a2.91 2.91 0 001.44 2.51L22.16 37a2.89 2.89 0 002.95 0l9.46-5.56A2.93 2.93 0 0036 28.88v-9.76a2.93 2.93 0 00-1.43-2.51z" fill="#fff"/></g></mask><mask id="d" x="2.85" y=".88" width="42.18" height="47.12" maskUnits="userSpaceOnUse"><g data-name="b"><path data-name="a" d="M26.82 1.64l15.27 8.69A5.8 5.8 0 0145 15.38v17.24a5.8 5.8 0 01-2.94 5.05l-15.24 8.69a5.78 5.78 0 01-5.75 0L5.79 37.67a5.8 5.8 0 01-2.94-5.05V15.38a5.8 5.8 0 012.94-5.05l15.28-8.69a5.78 5.78 0 015.75 0zm-1.71 9.41a2.89 2.89 0 00-2.95 0l-9.45 5.56a2.91 2.91 0 00-1.44 2.51v9.76a2.91 2.91 0 001.44 2.51L22.16 37a2.89 2.89 0 002.95 0l9.46-5.56A2.93 2.93 0 0036 28.88v-9.76a2.93 2.93 0 00-1.43-2.51z" fill="#fff"/></g></mask><mask id="e" x="2.85" y=".88" width="42.6" height="46.25" maskUnits="userSpaceOnUse"><g data-name="b"><path data-name="a" d="M26.82 1.64l15.27 8.69A5.8 5.8 0 0145 15.38v17.24a5.8 5.8 0 01-2.94 5.05l-15.24 8.69a5.78 5.78 0 01-5.75 0L5.79 37.67a5.8 5.8 0 01-2.94-5.05V15.38a5.8 5.8 0 012.94-5.05l15.28-8.69a5.78 5.78 0 015.75 0zm-1.71 9.41a2.89 2.89 0 00-2.95 0l-9.45 5.56a2.91 2.91 0 00-1.44 2.51v9.76a2.91 2.91 0 001.44 2.51L22.16 37a2.89 2.89 0 002.95 0l9.46-5.56A2.93 2.93 0 0036 28.88v-9.76a2.93 2.93 0 00-1.43-2.51z" fill="#fff"/></g></mask></defs><g mask="url(#a)"><path fill="#ffdb0a" d="M23.64 0v10.91L12.73 5.82 23.64 0z"/></g><g mask="url(#b)"><path fill="#fdca12" d="M23.64 10.91L12.73 5.82 12 17.45l11.64-6.54z"/></g><g mask="url(#c)"><path fill="#fab818" d="M12 17.45l.73-11.63-10.19 5.82L12 17.45z"/></g><g mask="url(#c)"><path fill="#f1911f" d="M12 17.45l-9.46-5.81V24L12 17.45z"/></g><g mask="url(#c)"><path fill="#ed7c20" d="M12 17.45L2.54 24 12 30.55v-13.1z"/></g><g mask="url(#c)"><path fill="#ea6721" d="M12 30.55L2.54 24v13.09L12 30.55z"/></g><g mask="url(#c)"><path fill="#e64e21" d="M12 30.55l-9.46 6.54 10.19 5.82L12 30.55z"/></g><g mask="url(#b)"><path fill="#d43622" d="M12 30.55l.73 12.36 10.91-5.82L12 30.55z"/></g><g mask="url(#d)"><path fill="#bb2024" d="M23.64 37.09l-10.91 5.82L23.64 48V37.09z"/></g><g mask="url(#d)"><path fill="#d43622" d="M23.64 37.09V48l10.18-5.09-10.18-5.82z"/></g><g mask="url(#b)"><path fill="#e64e21" d="M23.64 37.09l10.91-6.54-.73 12.36-10.18-5.82z"/></g><g mask="url(#b)"><path fill="#ea6721" d="M34.55 29.82l10.18 6.54-10.91 6.55.73-13.09z"/></g><g mask="url(#e)"><path fill="#ed7c20" d="M35.27 30.55l10.18-7.28v13.82l-10.18-6.54z"/></g><g mask="url(#e)"><path fill="#f1911f" d="M35.27 30.55l-.72-13.1 10.9 5.82-10.18 7.28z"/></g><g mask="url(#e)"><path fill="#fab818" d="M34.55 17.45l10.9-6.54v12.36l-10.9-5.82z"/></g><g mask="url(#e)"><path fill="#fdca12" d="M34.55 17.45l10.9-6.54-11.63-5.82.73 12.36z"/></g><g mask="url(#b)"><path fill="#ffdb0a" d="M35.27 17.45l-11.63-6.54 10.18-5.82 1.45 12.36z"/></g><g mask="url(#a)"><path fill="#ffec00" d="M23.64 10.91l10.18-5.82L23.64 0v10.91z"/></g></svg>