<svg xmlns="http://www.w3.org/2000/svg" xmlns:xlink="http://www.w3.org/1999/xlink" viewBox="0 0 32 32"><defs><polygon id="a" points=".104 .338 7.158 .338 7.158 6.5 .104 6.5"/><polygon id="c" points=".104 .353 7.155 .353 7.155 6.512 .104 6.512"/><polygon id="e" points="0 .139 5.953 .139 5.953 7.928 0 7.928"/><polygon id="g" points="0 .428 5.953 .428 5.953 8.214 0 8.214"/></defs><g fill="none" fill-rule="evenodd" transform="translate(1.75)"><path fill="#EE7D00" d="M27.6 23.86c.37-.66.6-1.4.61-2.07v-5.72l-5.95 4.7 5.33 3.09z"/><path fill="#FAB900" d="M28.21 16.07v-5.72c0-.66-.24-1.4-.62-2.06l-5.33 3.08 5.95 4.7z"/><path fill="#F29100" d="M22.26 20.78l5.95-4.7-5.95-4.71c.23.4.37.84.37 1.25v6.9c0 .41-.14.86-.37 1.26"/><g transform="translate(14 25.147)"><mask id="b" fill="white"><use xlink:href="#a"/></mask><path fill="#D63517" d="M7.16 3.14L.1.34V6.5A4.3 4.3 0 0 0 2.2 6l3.71-2.14 1.25-.72z" mask="url(#b)"/></g><path fill="#EB6608" d="M22.26 20.78l-1.1 7.5 4.95-2.85c.57-.33 1.1-.91 1.48-1.57l-5.33-3.08z"/><path fill="#E74E0F" d="M21.36 21.73l-5.98 3.45c-.35.2-.81.3-1.27.3l7.05 2.8 1.1-7.5c-.23.4-.55.75-.9.95"/><path fill="#FFDC00" d="M14.1 6.66V.5A4.3 4.3 0 0 0 12 1L7.05 3.86l7.05 2.8z"/><path fill="#FAB900" d="M5.95 11.37l1.1-7.51L2.1 6.72c-.58.33-1.1.9-1.48 1.57l5.33 3.08z"/><path fill="#FECB00" d="M6.85 10.42l5.98-3.46c.35-.2.81-.3 1.27-.3l-7.05-2.8-1.1 7.5c.23-.4.55-.74.9-.94m15.4.95l5.34-3.08a4.31 4.31 0 0 0-1.48-1.57l-4.95-2.86 1.1 7.5z"/><g transform="translate(14 .147)"><mask id="d" fill="white"><use xlink:href="#c"/></mask><path fill="#FFEC00" d="M2.2.85A4.3 4.3 0 0 0 .1.35v6.16l7.06-2.8L2.2.85z" mask="url(#d)"/></g><path fill="#FFDC00" d="M15.38 6.96l5.98 3.46c.35.2.67.55.9.95l-1.1-7.51-7.06 2.8c.47 0 .93.1 1.28.3"/><g transform="translate(0 8.147)"><mask id="f" fill="white"><use xlink:href="#e"/></mask><path fill="#F29100" d="M5.95 3.22L.62.14A4.3 4.3 0 0 0 0 2.2v5.72l5.95-4.71z" mask="url(#f)"/></g><g transform="translate(0 15.647)"><mask id="h" fill="white"><use xlink:href="#g"/></mask><path fill="#EB6608" d="M0 .43v5.71c0 .67.24 1.41.62 2.07l5.33-3.08L0 .43z" mask="url(#h)"/></g><path fill="#EE7D00" d="M5.58 19.53v-6.91c0-.4.14-.85.37-1.25L0 16.07l5.95 4.7a2.6 2.6 0 0 1-.37-1.24"/><path fill="#E74E0F" d="M5.95 20.78L.62 23.86c.38.66.9 1.24 1.48 1.57l4.95 2.86-1.1-7.51z"/><path fill="#BD1D1D" d="M12 31.15c.58.33 1.34.5 2.1.5v-6.17l-7.05 2.8L12 31.16z"/><path fill="#D63517" d="M12.83 25.18l-5.98-3.45a2.6 2.6 0 0 1-.9-.95l1.1 7.5 7.05-2.8c-.46 0-.92-.1-1.27-.3"/></g></svg>