<svg id="Layer_1" data-name="Layer 1" xmlns="http://www.w3.org/2000/svg" xmlns:xlink="http://www.w3.org/1999/xlink" viewBox="0 0 48 48"><defs><style>.cls-1{fill:#fff;}.cls-2{mask:url(#mask);}.cls-3{fill:#ffdb0a;}.cls-4{mask:url(#mask-2);}.cls-5{fill:#fdca12;}.cls-6{mask:url(#mask-3);}.cls-7{fill:#fab818;}.cls-8{fill:#f1911f;}.cls-9{fill:#ed7c20;}.cls-10{fill:#ea6721;}.cls-11{fill:#e64e21;}.cls-12{fill:#d43622;}.cls-13{mask:url(#mask-9);}.cls-14{fill:#bb2024;}.cls-15{mask:url(#mask-13);}.cls-16{fill:#ffec00;}</style><mask id="mask" x="2.85" y="0" width="42.18" height="47.12" maskUnits="userSpaceOnUse"><g id="b"><path id="a" class="cls-1" d="M26.82,1.64l15.27,8.69h0A5.8,5.8,0,0,1,45,15.38V32.62h0a5.8,5.8,0,0,1-2.94,5.05L26.82,46.36a5.78,5.78,0,0,1-5.75,0L5.79,37.67h0a5.8,5.8,0,0,1-2.94-5.05V15.38h0a5.8,5.8,0,0,1,2.94-5.05L21.07,1.64h0a5.78,5.78,0,0,1,5.75,0Zm-1.71,9.41a2.89,2.89,0,0,0-2.95,0h0l-9.45,5.56a2.91,2.91,0,0,0-1.44,2.51v9.76a2.91,2.91,0,0,0,1.44,2.51L22.16,37a2.89,2.89,0,0,0,2.95,0h0l9.46-5.56A2.93,2.93,0,0,0,36,28.88h0V19.12a2.93,2.93,0,0,0-1.43-2.51Z"/></g></mask><mask id="mask-2" x="2.85" y="0.88" width="42.18" height="46.25" maskUnits="userSpaceOnUse"><g id="b-2" data-name="b"><path id="a-2" data-name="a" class="cls-1" d="M26.82,1.64l15.27,8.69h0A5.8,5.8,0,0,1,45,15.38V32.62h0a5.8,5.8,0,0,1-2.94,5.05L26.82,46.36a5.78,5.78,0,0,1-5.75,0L5.79,37.67h0a5.8,5.8,0,0,1-2.94-5.05V15.38h0a5.8,5.8,0,0,1,2.94-5.05L21.07,1.64h0a5.78,5.78,0,0,1,5.75,0Zm-1.71,9.41a2.89,2.89,0,0,0-2.95,0h0l-9.45,5.56a2.91,2.91,0,0,0-1.44,2.51v9.76a2.91,2.91,0,0,0,1.44,2.51L22.16,37a2.89,2.89,0,0,0,2.95,0h0l9.46-5.56A2.93,2.93,0,0,0,36,28.88h0V19.12a2.93,2.93,0,0,0-1.43-2.51Z"/></g></mask><mask id="mask-3" x="2.55" y="0.88" width="42.49" height="46.25" maskUnits="userSpaceOnUse"><g id="b-3" data-name="b"><path id="a-3" data-name="a" class="cls-1" d="M26.82,1.64l15.27,8.69h0A5.8,5.8,0,0,1,45,15.38V32.62h0a5.8,5.8,0,0,1-2.94,5.05L26.82,46.36a5.78,5.78,0,0,1-5.75,0L5.79,37.67h0a5.8,5.8,0,0,1-2.94-5.05V15.38h0a5.8,5.8,0,0,1,2.94-5.05L21.07,1.64h0a5.78,5.78,0,0,1,5.75,0Zm-1.71,9.41a2.89,2.89,0,0,0-2.95,0h0l-9.45,5.56a2.91,2.91,0,0,0-1.44,2.51v9.76a2.91,2.91,0,0,0,1.44,2.51L22.16,37a2.89,2.89,0,0,0,2.95,0h0l9.46-5.56A2.93,2.93,0,0,0,36,28.88h0V19.12a2.93,2.93,0,0,0-1.43-2.51Z"/></g></mask><mask id="mask-9" x="2.85" y="0.88" width="42.18" height="47.12" maskUnits="userSpaceOnUse"><g id="b-9" data-name="b"><path id="a-9" data-name="a" class="cls-1" d="M26.82,1.64l15.27,8.69h0A5.8,5.8,0,0,1,45,15.38V32.62h0a5.8,5.8,0,0,1-2.94,5.05L26.82,46.36a5.78,5.78,0,0,1-5.75,0L5.79,37.67h0a5.8,5.8,0,0,1-2.94-5.05V15.38h0a5.8,5.8,0,0,1,2.94-5.05L21.07,1.64h0a5.78,5.78,0,0,1,5.75,0Zm-1.71,9.41a2.89,2.89,0,0,0-2.95,0h0l-9.45,5.56a2.91,2.91,0,0,0-1.44,2.51v9.76a2.91,2.91,0,0,0,1.44,2.51L22.16,37a2.89,2.89,0,0,0,2.95,0h0l9.46-5.56A2.93,2.93,0,0,0,36,28.88h0V19.12a2.93,2.93,0,0,0-1.43-2.51Z"/></g></mask><mask id="mask-13" x="2.85" y="0.88" width="42.6" height="46.25" maskUnits="userSpaceOnUse"><g id="b-13" data-name="b"><path id="a-13" data-name="a" class="cls-1" d="M26.82,1.64l15.27,8.69h0A5.8,5.8,0,0,1,45,15.38V32.62h0a5.8,5.8,0,0,1-2.94,5.05L26.82,46.36a5.78,5.78,0,0,1-5.75,0L5.79,37.67h0a5.8,5.8,0,0,1-2.94-5.05V15.38h0a5.8,5.8,0,0,1,2.94-5.05L21.07,1.64h0a5.78,5.78,0,0,1,5.75,0Zm-1.71,9.41a2.89,2.89,0,0,0-2.95,0h0l-9.45,5.56a2.91,2.91,0,0,0-1.44,2.51v9.76a2.91,2.91,0,0,0,1.44,2.51L22.16,37a2.89,2.89,0,0,0,2.95,0h0l9.46-5.56A2.93,2.93,0,0,0,36,28.88h0V19.12a2.93,2.93,0,0,0-1.43-2.51Z"/></g></mask></defs><title>harmonie</title><g class="cls-2"><polygon class="cls-3" points="23.64 0 23.64 10.91 12.73 5.82 23.64 0"/></g><g class="cls-4"><polygon class="cls-5" points="23.64 10.91 12.73 5.82 12 17.45 23.64 10.91"/></g><g class="cls-6"><polygon class="cls-7" points="12 17.45 12.73 5.82 2.54 11.64 12 17.45"/></g><g class="cls-6"><polygon class="cls-8" points="12 17.45 2.54 11.64 2.54 24 12 17.45"/></g><g class="cls-6"><polygon class="cls-9" points="12 17.45 2.54 24 12 30.55 12 17.45"/></g><g class="cls-6"><polygon class="cls-10" points="12 30.55 2.54 24 2.54 37.09 12 30.55"/></g><g class="cls-6"><polygon class="cls-11" points="12 30.55 2.54 37.09 12.73 42.91 12 30.55"/></g><g class="cls-4"><polygon class="cls-12" points="12 30.55 12.73 42.91 23.64 37.09 12 30.55"/></g><g class="cls-13"><polygon class="cls-14" points="23.64 37.09 12.73 42.91 23.64 48 23.64 37.09"/></g><g class="cls-13"><polygon class="cls-12" points="23.64 37.09 23.64 48 33.82 42.91 23.64 37.09"/></g><g class="cls-4"><polygon class="cls-11" points="23.64 37.09 34.55 30.55 33.82 42.91 23.64 37.09"/></g><g class="cls-4"><polygon class="cls-10" points="34.55 29.82 44.73 36.36 33.82 42.91 34.55 29.82"/></g><g class="cls-15"><polygon class="cls-9" points="35.27 30.55 45.45 23.27 45.45 37.09 35.27 30.55"/></g><g class="cls-15"><polygon class="cls-8" points="35.27 30.55 34.55 17.45 45.45 23.27 35.27 30.55"/></g><g class="cls-15"><polygon class="cls-7" points="34.55 17.45 45.45 10.91 45.45 23.27 34.55 17.45"/></g><g class="cls-15"><polygon class="cls-5" points="34.55 17.45 45.45 10.91 33.82 5.09 34.55 17.45"/></g><g class="cls-4"><polygon class="cls-3" points="35.27 17.45 23.64 10.91 33.82 5.09 35.27 17.45"/></g><g class="cls-2"><polygon class="cls-16" points="23.64 10.91 33.82 5.09 23.64 0 23.64 10.91"/></g></svg>